<svg xmlns="http://www.w3.org/2000/svg" viewBox="0 0 273.81600000000003 80"><g transform="translate(0 8)"><g fill="#ffffff"><rect x="29" y="4" width="6" height="19" rx="3" transform="rotate(0 32 32)"/><rect x="29" y="4" width="6" height="19" rx="3" transform="rotate(45 32 32)"/><rect x="29" y="4" width="6" height="19" rx="3" transform="rotate(90 32 32)"/><rect x="29" y="4" width="6" height="19" rx="3" transform="rotate(135 32 32)"/><rect x="29" y="4" width="6" height="19" rx="3" transform="rotate(180 32 32)"/><rect x="29" y="4" width="6" height="19" rx="3" transform="rotate(225 32 32)"/><rect x="29" y="4" width="6" height="19" rx="3" transform="rotate(270 32 32)"/><rect x="29" y="4" width="6" height="19" rx="3" transform="rotate(315 32 32)"/><circle cx="32" cy="32" r="3"/></g></g><g fill="#ffffff" transform="translate(84 0)"><path d="M18.791054248809814 62.89121222496033Q14.12228536605835 62.89121222496033 10.452839970588684 61.440133929252625Q6.7833945751190186 59.98905563354492 4.565908312797546 57.20028245449066Q2.348422050476074 54.4115092754364 2.0390453338623047 50.43182349205017H11.520782947540283Q11.805547714233398 52.99293613433838 13.63278329372406 54.42642343044281Q15.460018873214722 55.85991072654724 18.61878776550293 55.85991072654724Q21.679117441177368 55.85991072654724 23.421096324920654 54.67779362201691Q25.16307520866394 53.49567651748657 25.16307520866394 51.651747941970825Q25.16307520866394 50.080278158187866 23.853511333465576 49.11524724960327Q22.543947458267212 48.15021634101868 20.221881866455078 47.68264079093933L13.802338600158691 46.40295672416687Q8.444520950317383 45.31487464904785 5.663658142089844 42.59905219078064Q2.8827953338623047 39.88322973251343 2.8827953338623047 35.63459134101868Q2.8827953338623047 32.16993474960327 4.761901617050171 29.568367958068848Q6.641007900238037 26.966801166534424 10.093362808227539 25.522756695747375Q13.545717716217041 24.078712224960327 18.23030734062195 24.078712224960327Q22.888531923294067 24.078712224960327 26.39186382293701 25.600979566574097Q29.895195722579956 27.123246908187866 31.887681126594543 29.905867099761963Q33.88016653060913 32.68848729133606 33.98563528060913 36.53810095787048H25.01719093322754Q24.98203468322754 34.186164140701294 23.17764937877655 32.63226819038391Q21.37326407432556 31.07837224006653 18.483439207077026 31.07837224006653Q15.69029188156128 31.07837224006653 14.078389406204224 32.29564559459686Q12.466486930847168 33.5129189491272 12.466486930847168 35.286535024642944Q12.466486930847168 36.84218406677246 13.720678210258484 37.824793100357056Q14.9748694896698 38.80740213394165 17.18794298171997 39.28200721740723L24.050467014312744 40.65661573410034Q29.63152813911438 41.7956748008728 32.26209819316864 44.27770519256592Q34.8926682472229 46.75973558425903 34.8926682472229 50.846651792526245Q34.8926682472229 54.51345467567444 32.83953809738159 57.219613671302795Q30.786407947540283 59.92577266693115 27.15036141872406 61.40849244594574Q23.514314889907837 62.89121222496033 18.791054248809814 62.89121222496033ZM38.37576408386231 76.6953125V24.875H47.850472164154056V29.979677200317383H47.96824688911438Q49.116097164154056 28.01620364189148 50.79392511844635 26.71630322933197Q52.47175307273865 25.41640281677246 54.58727676868439 24.762497425079346Q56.70280046463013 24.10859203338623 59.09342546463013 24.10859203338623Q63.86588425636292 24.10859203338623 67.46324689388275 26.550194025039673Q71.06060953140259 28.991796016693115 73.08033652305603 33.341503262519836Q75.10006351470948 37.69121050834656 75.10006351470948 43.405858516693115Q75.10006351470948 49.19609546661377 73.1040676355362 53.55371308326721Q71.10807175636292 57.911330699920654 67.50279874801636 60.33886933326721Q63.8975257396698 62.76640796661377 59.03014249801636 62.76640796661377Q56.607876014709475 62.76640796661377 54.54244847297669 62.057129979133606Q52.4770209312439 61.34785199165344 50.84225959777832 59.94160199165344Q49.20749826431275 58.53535199165344 48.09305114746094 56.43828296661377H47.991097164154056V76.6953125ZM56.64475102424622 54.840362310409546Q59.29375858306885 54.840362310409546 61.248432350158694 53.5035525560379Q63.20310611724854 52.16674280166626 64.29294128417969 49.6108980178833Q65.38277645111084 47.05505323410034 65.38277645111084 43.405858516693115Q65.38277645111084 39.73732829093933 64.29294128417969 37.197304248809814Q63.20310611724854 34.6572802066803 61.248432350158694 33.320470452308655Q59.29375858306885 31.98366069793701 56.64475102424622 31.98366069793701Q53.89555115699768 31.98366069793701 51.831013035774234 33.397812485694885Q49.766474914550784 34.81196427345276 48.63269228935242 37.37132382392883Q47.498909664154056 39.93068337440491 47.498909664154056 43.405858516693115Q47.498909664154056 46.861698150634766 48.63269228935242 49.43687844276428Q49.766474914550784 52.0120587348938 51.831013035774234 53.42621052265167Q53.89555115699768 54.840362310409546 56.64475102424622 54.840362310409546ZM95.39318337440491 62.84375Q89.80157794952393 62.84375 85.67510559558869 60.35556662082672Q81.54863324165345 57.86738324165344 79.29599072933198 53.48251974582672Q77.0433482170105 49.09765625 77.0433482170105 43.476171016693115Q77.0433482170105 37.80019402503967 79.34608688354493 33.413573145866394Q81.64882555007935 29.026952266693115 85.70674278736115 26.529101133346558Q89.76466002464295 24.03125 95.03459134101868 24.03125Q99.09162774085999 24.03125 102.40071513652802 25.42958962917328Q105.70980253219605 26.827929258346558 108.09867444038392 29.405760645866394Q110.48754634857178 31.98359203338623 111.77602591514588 35.512399554252625Q113.06450548171998 39.04120707511902 113.06450548171998 43.30214285850525V45.90373110771179H80.65039148330689V39.536900758743286H108.34825720787049L104.02574863433838 41.14002060890198Q104.02574863433838 38.16582417488098 102.94909598827363 36.00373196601868Q101.87244334220887 33.84163975715637 99.90194883346558 32.668309569358826Q97.9314543247223 31.49497938156128 95.20861949920655 31.49497938156128Q92.5209409236908 31.49497938156128 90.55220379829407 32.668309569358826Q88.58346667289734 33.84163975715637 87.50681402683259 36.00373196601868Q86.43016138076783 38.16582417488098 86.43016138076783 41.14002060890198V45.33244848251343Q86.43016138076783 48.357621908187866 87.51120963096619 50.646275758743286Q88.59225788116456 52.934929609298706 90.656796002388 54.201422572135925Q92.72133412361146 55.467915534973145 95.64631524085999 55.467915534973145Q97.77677025794983 55.467915534973145 99.42470982074738 54.839502930641174Q101.07264938354493 54.211090326309204 102.17742874622346 53.074673771858215Q103.28220810890198 51.93825721740723 103.76560440063477 50.43182349205017H112.65318336486817Q111.96587910652161 54.09334993362427 109.54536571502686 56.88563787937164Q107.12485232353211 59.67792582511902 103.47035112380982 61.26083791255951Q99.81584992408753 62.84375 95.39318337440491 62.84375ZM133.25392684936526 62.84375Q127.75723729133607 62.84375 123.61142942905427 60.388965487480164Q119.46562156677247 57.93418097496033 117.16112551689149 53.566895604133606Q114.8566294670105 49.199610233306885 114.8566294670105 43.476171016693115Q114.8566294670105 37.73339629173279 117.16112551689149 33.34677541255951Q119.46562156677247 28.96015453338623 123.61142942905427 26.495702266693115Q127.75723729133607 24.03125 133.25392684936526 24.03125Q136.82932863235476 24.03125 139.85101733207705 25.092971324920654Q142.87270603179934 26.15469264984131 145.1350162982941 28.084775924682617Q147.39732656478884 30.014859199523926 148.7613907814026 32.64719092845917Q150.12545499801638 35.27952265739441 150.40142855644228 38.455899715423584H141.03219780921938Q140.81071600914004 36.99340486526489 140.20339629650118 35.79633927345276Q139.59607658386233 34.599273681640625 138.62049708366396 33.731796860694885Q137.6449175834656 32.864320039749146 136.33623454570773 32.38883411884308Q135.02755150794985 31.91334819793701 133.3804927825928 31.91334819793701Q130.62777814865115 31.91334819793701 128.6520114898682 33.32925736904144Q126.67624483108521 34.745166540145874 125.62508068084718 37.33968234062195Q124.57391653060914 39.93419814109802 124.57391653060914 43.476171016693115Q124.57391653060914 46.98298764228821 125.62508068084718 49.566078305244446Q126.67624483108521 52.149168968200684 128.65025410652163 53.555410385131836Q130.62426338195803 54.96165180206299 133.3804927825928 54.96165180206299Q135.02755150794985 54.96165180206299 136.31689903736117 54.49759101867676Q137.60624656677248 54.03353023529053 138.54315505027773 53.16605341434479Q139.48006353378298 52.29857659339905 140.08738324642184 51.07602250576019Q140.6947029590607 49.85346841812134 140.9741912841797 48.35581731796265H150.40142855644228Q150.18873796463015 51.493523359298706 148.84840486049654 54.13376545906067Q147.50807175636294 56.77400755882263 145.2281833648682 58.72957932949066Q142.94829497337344 60.68515110015869 139.90287516117098 61.764450550079346Q136.85745534896853 62.84375 133.25392684936526 62.84375ZM162.55768542289735 50.855528831481934V39.50170159339905H163.53680114746095L177.2704945087433 24.875H188.67528157234193L171.64913802146913 43.37072801589966H169.56784682273866ZM153.81951408386232 62.0V9.6171875H163.43484716415406V62.0ZM178.1634512424469 62.0 165.86235575675965 45.49770259857178 172.2643681049347 38.78630495071411 189.5225377559662 62.0Z"/></g></svg>
